<?xml version="1.0" standalone="no"?>
<!DOCTYPE svg PUBLIC "-//W3C//DTD SVG 20010904//EN"
 "http://www.w3.org/TR/2001/REC-SVG-20010904/DTD/svg10.dtd">
<svg version="1.0" xmlns="http://www.w3.org/2000/svg"
 width="149.000000pt" height="71.000000pt" viewBox="0 0 149.000000 71.000000"
 preserveAspectRatio="xMidYMid meet">

<g transform="translate(0.000000,71.000000) scale(0.100000,-0.100000)"
fill="#000000" stroke="none">
<path d="M772 534 c-15 -11 -22 -25 -22 -50 0 -19 5 -34 10 -34 6 0 10 13 10
30 0 19 7 33 19 40 29 15 453 14 469 -2 17 -17 17 -319 0 -336 -7 -7 -31 -12
-55 -12 -49 0 -48 1 -28 -60 l15 -45 -6 48 -6 47 35 0 c26 0 41 7 55 25 18 22
20 42 21 173 1 81 -2 152 -6 158 -21 29 -56 34 -270 34 -182 0 -222 -3 -241
-16z"/>
<path d="M182 348 c2 -46 7 -73 16 -76 9 -3 12 16 12 72 0 62 -3 76 -15 76
-13 0 -15 -12 -13 -72z"/>
<path d="M1065 378 c-16 -112 -16 -105 -5 -80 5 12 16 22 24 22 8 0 26 11 40
25 18 18 21 25 10 25 -8 0 -17 -7 -20 -15 -4 -8 -13 -15 -21 -15 -12 0 -14 8
-9 40 3 22 2 40 -3 40 -5 0 -12 -19 -16 -42z"/>
<path d="M356 385 c-10 -15 -12 -26 -6 -30 6 -3 10 -19 10 -34 0 -31 16 -51
42 -51 22 0 24 18 3 26 -19 8 -20 50 -1 61 12 7 11 12 -8 31 l-24 22 -16 -25z"/>
<path d="M247 362 c-24 -27 -21 -59 8 -78 26 -17 81 -12 69 7 -3 6 -12 8 -20
5 -18 -7 -45 4 -38 15 3 5 21 9 40 9 25 0 34 4 34 16 0 40 -65 57 -93 26z m54
-17 c0 -5 -9 -11 -21 -13 -20 -3 -27 8 -13 22 10 9 34 3 34 -9z"/>
<path d="M440 324 c0 -64 23 -73 28 -11 2 20 7 37 13 37 5 0 12 0 17 0 4 1 9
-16 12 -36 7 -51 28 -56 32 -7 2 30 7 39 25 41 19 3 22 -2 25 -35 4 -49 22
-49 26 0 5 56 -6 64 -98 65 l-80 1 0 -55z"/>
<path d="M658 369 c-39 -22 -10 -99 38 -99 27 0 49 16 35 24 -6 4 -15 5 -20 2
-12 -8 -41 3 -41 15 0 5 18 9 40 9 44 0 52 16 22 43 -21 19 -49 21 -74 6z m57
-18 c3 -5 1 -13 -5 -16 -15 -9 -43 3 -35 15 8 13 32 13 40 1z"/>
<path d="M831 361 c-24 -24 -25 -34 -11 -62 8 -14 21 -19 49 -19 32 0 40 4 45
23 10 36 7 67 -6 67 -7 0 -23 3 -35 6 -14 4 -28 -1 -42 -15z m67 -32 c2 -18
-3 -29 -14 -33 -25 -9 -54 3 -54 23 0 46 63 55 68 10z"/>
<path d="M968 369 c-27 -15 -21 -36 14 -48 34 -12 30 -26 -12 -34 -17 -3 -13
-5 10 -4 44 2 54 32 16 47 -43 16 -32 36 18 30 11 -1 15 3 12 9 -9 14 -35 14
-58 0z"/>
<path d="M1110 301 c0 -5 5 -13 10 -16 6 -3 10 -2 10 4 0 5 -4 13 -10 16 -5 3
-10 2 -10 -4z"/>
<path d="M750 187 c0 -8 8 -21 18 -30 15 -14 42 -17 158 -17 l140 0 39 -40
c21 -22 41 -37 44 -35 2 3 -15 26 -39 50 l-44 45 -144 0 c-135 0 -144 1 -149
20 -6 22 -23 27 -23 7z"/>
</g>
</svg>
